<svg width="48" height="48" viewBox="0 0 48 48" fill="none" xmlns="http://www.w3.org/2000/svg">
<rect width="48" height="48" rx="24" fill="#E4ECFD"/>
<path d="M31 33V31C31 29.9391 30.5786 28.9217 29.8284 28.1716C29.0783 27.4214 28.0609 27 27 27H21C19.9391 27 18.9217 27.4214 18.1716 28.1716C17.4214 28.9217 17 29.9391 17 31V33" stroke="#0DEDA7" stroke-width="2" stroke-linecap="round" stroke-linejoin="round"/>
<path d="M24 23C26.2091 23 28 21.2091 28 19C28 16.7909 26.2091 15 24 15C21.7909 15 20 16.7909 20 19C20 21.2091 21.7909 23 24 23Z" stroke="#0DEDA7" stroke-width="2" stroke-linecap="round" stroke-linejoin="round"/>
</svg>
