<svg width="75" height="75" viewBox="0 0 75 75" fill="none" xmlns="http://www.w3.org/2000/svg">
<path d="M41 43.25V40.0476C41 38.349 40.3252 36.7199 39.1241 35.5187C37.923 34.3176 36.2939 33.6428 34.5952 33.6428H24.988C23.2894 33.6428 21.6603 34.3176 20.4592 35.5187C19.258 36.7199 18.5833 38.349 18.5833 40.0476V43.25" stroke="#0DEDA7" stroke-width="2" stroke-linecap="round" stroke-linejoin="round"/>
<path d="M29.7916 27.238C33.3289 27.238 36.1964 24.3705 36.1964 20.8333C36.1964 17.296 33.3289 14.4285 29.7916 14.4285C26.2544 14.4285 23.3868 17.296 23.3868 20.8333C23.3868 24.3705 26.2544 27.238 29.7916 27.238Z" stroke="#0DEDA7" stroke-width="2" stroke-linecap="round" stroke-linejoin="round"/>
<path d="M53.3146 48.2899L51.419 50.7139H54.4962H56.884C57.4294 50.7139 57.9398 50.926 58.3139 51.3L72.9138 65.8974C72.9148 65.8984 72.9158 65.8994 72.9168 65.9004C73.6969 66.6921 73.6959 67.9706 72.9048 68.7615L68.759 72.9066L68.7533 72.9123C67.9811 73.6927 66.7084 73.7009 65.9139 72.9066L51.3084 58.3036C50.9343 57.9296 50.7224 57.4193 50.7224 56.8743V54.4869V51.4103L48.2985 53.3051C43.3823 57.1483 37.201 59.4315 30.471 59.4315C14.4669 59.4315 1.5 46.4665 1.5 30.4658C1.5 14.465 14.4669 1.5 30.471 1.5C46.4751 1.5 59.442 14.465 59.442 30.4658C59.442 37.1944 57.1584 43.3746 53.3146 48.2899ZM10.2196 30.4658C10.2196 41.6653 19.2864 50.7139 30.471 50.7139C41.6718 50.7139 50.7224 41.6491 50.7224 30.4658C50.7224 19.2663 41.6556 10.2176 30.471 10.2176C19.2702 10.2176 10.2196 19.2824 10.2196 30.4658Z" fill="#5A81FA" stroke="white" stroke-width="3"/>
</svg>
