<svg width="13" height="13" viewBox="0 0 13 13" fill="none" xmlns="http://www.w3.org/2000/svg">
<g clip-path="url(#clip0_1_630)">
<path d="M6.34167 7.927C7.21727 7.927 7.92709 7.21718 7.92709 6.34158C7.92709 5.46598 7.21727 4.75616 6.34167 4.75616C5.46607 4.75616 4.75626 5.46598 4.75626 6.34158C4.75626 7.21718 5.46607 7.927 6.34167 7.927Z" stroke="white" stroke-width="1.18906" stroke-linecap="round" stroke-linejoin="round"/>
<path d="M10.2525 7.92681C10.1821 8.0862 10.1611 8.26302 10.1922 8.43445C10.2233 8.60589 10.305 8.76408 10.4269 8.88863L10.4586 8.92034C10.5569 9.0185 10.6348 9.13507 10.688 9.26338C10.7412 9.39169 10.7686 9.52923 10.7686 9.66812C10.7686 9.80702 10.7412 9.94456 10.688 10.0729C10.6348 10.2012 10.5569 10.3178 10.4586 10.4159C10.3604 10.5142 10.2439 10.5921 10.1155 10.6453C9.98723 10.6985 9.84969 10.7259 9.7108 10.7259C9.5719 10.7259 9.43436 10.6985 9.30605 10.6453C9.17774 10.5921 9.06117 10.5142 8.96301 10.4159L8.9313 10.3842C8.80675 10.2624 8.64856 10.1806 8.47712 10.1496C8.30569 10.1185 8.12888 10.1395 7.96948 10.2098C7.81317 10.2768 7.67987 10.388 7.58597 10.5298C7.49207 10.6716 7.44169 10.8377 7.44101 11.0078V11.0976C7.44101 11.378 7.32965 11.6468 7.13144 11.845C6.93322 12.0432 6.66438 12.1546 6.38406 12.1546C6.10374 12.1546 5.83491 12.0432 5.63669 11.845C5.43848 11.6468 5.32712 11.378 5.32712 11.0976V11.0501C5.32303 10.8752 5.26641 10.7055 5.16462 10.5632C5.06283 10.4209 4.92058 10.3125 4.75637 10.2521C4.59697 10.1817 4.42016 10.1608 4.24872 10.1918C4.07729 10.2229 3.9191 10.3046 3.79455 10.4265L3.76284 10.4582C3.66468 10.5565 3.54811 10.6344 3.4198 10.6876C3.29149 10.7408 3.15395 10.7682 3.01505 10.7682C2.87615 10.7682 2.73862 10.7408 2.61031 10.6876C2.482 10.6344 2.36543 10.5565 2.26726 10.4582C2.16899 10.36 2.09103 10.2435 2.03784 10.1151C1.98465 9.98684 1.95728 9.8493 1.95728 9.7104C1.95728 9.5715 1.98465 9.43397 2.03784 9.30566C2.09103 9.17734 2.16899 9.06078 2.26726 8.96261L2.29897 8.93091C2.42081 8.80636 2.50253 8.64816 2.53362 8.47673C2.5647 8.3053 2.54372 8.12848 2.47337 7.96909C2.40638 7.81278 2.29514 7.67947 2.15336 7.58558C2.01158 7.49168 1.84543 7.44129 1.67538 7.44061H1.58554C1.30522 7.44061 1.03638 7.32926 0.838163 7.13104C0.639947 6.93283 0.528591 6.66399 0.528591 6.38367C0.528591 6.10335 0.639947 5.83451 0.838163 5.6363C1.03638 5.43808 1.30522 5.32673 1.58554 5.32673H1.6331C1.80802 5.32263 1.97766 5.26601 2.11998 5.16423C2.26229 5.06244 2.37069 4.92019 2.43109 4.75598C2.50144 4.59658 2.52242 4.41977 2.49134 4.24833C2.46026 4.0769 2.37853 3.91871 2.2567 3.79416L2.22499 3.76245C2.12672 3.66429 2.04876 3.54772 1.99557 3.41941C1.94238 3.2911 1.915 3.15356 1.915 3.01466C1.915 2.87576 1.94238 2.73822 1.99557 2.60991C2.04876 2.4816 2.12672 2.36503 2.22499 2.26687C2.32315 2.1686 2.43972 2.09064 2.56803 2.03745C2.69634 1.98426 2.83388 1.95688 2.97278 1.95688C3.11167 1.95688 3.24921 1.98426 3.37752 2.03745C3.50583 2.09064 3.6224 2.1686 3.72056 2.26687L3.75227 2.29858C3.87682 2.42041 4.03501 2.50214 4.20645 2.53322C4.37788 2.56431 4.5547 2.54332 4.71409 2.47298H4.75637C4.91267 2.40599 5.04598 2.29475 5.13988 2.15297C5.23377 2.01118 5.28416 1.84504 5.28484 1.67498V1.58514C5.28484 1.30482 5.3962 1.03599 5.59441 0.83777C5.79263 0.639555 6.06147 0.528198 6.34179 0.528198C6.6221 0.528198 6.89094 0.639555 7.08916 0.83777C7.28737 1.03599 7.39873 1.30482 7.39873 1.58514V1.63271C7.39941 1.80276 7.4498 1.96891 7.54369 2.11069C7.63759 2.25247 7.7709 2.36371 7.9272 2.4307C8.0866 2.50105 8.26341 2.52203 8.43485 2.49095C8.60628 2.45986 8.76447 2.37813 8.88902 2.2563L8.92073 2.22459C9.01889 2.12632 9.13546 2.04836 9.26377 1.99517C9.39208 1.94198 9.52962 1.91461 9.66852 1.91461C9.80742 1.91461 9.94495 1.94198 10.0733 1.99517C10.2016 2.04836 10.3181 2.12632 10.4163 2.22459C10.5146 2.32276 10.5925 2.43932 10.6457 2.56764C10.6989 2.69595 10.7263 2.83348 10.7263 2.97238C10.7263 3.11128 10.6989 3.24882 10.6457 3.37713C10.5925 3.50544 10.5146 3.62201 10.4163 3.72017L10.3846 3.75188C10.2628 3.87643 10.181 4.03462 10.15 4.20605C10.1189 4.37749 10.1399 4.5543 10.2102 4.7137V4.75598C10.2772 4.91228 10.3884 5.04559 10.5302 5.13948C10.672 5.23338 10.8381 5.28377 11.0082 5.28445H11.098C11.3784 5.28445 11.6472 5.3958 11.8454 5.59402C12.0436 5.79224 12.155 6.06107 12.155 6.34139C12.155 6.62171 12.0436 6.89055 11.8454 7.08876C11.6472 7.28698 11.3784 7.39834 11.098 7.39834H11.0505C10.8804 7.39901 10.7143 7.4494 10.5725 7.5433C10.4307 7.6372 10.3195 7.7705 10.2525 7.92681V7.92681Z" stroke="white" stroke-width="1.18906" stroke-linecap="round" stroke-linejoin="round"/>
</g>
<defs>
<clipPath id="clip0_1_630">
<rect width="12.6833" height="12.6833" fill="white"/>
</clipPath>
</defs>
</svg>
