<svg width="20" height="19" viewBox="0 0 20 19" fill="none" xmlns="http://www.w3.org/2000/svg">
<g clip-path="url(#clip0_1_535)">
<path d="M0.631287 14.2402C0.631287 14.7881 0.848933 15.3135 1.23634 15.7009C1.62376 16.0884 2.1492 16.306 2.69708 16.306H17.1577C17.7056 16.306 18.231 16.0884 18.6184 15.7009C19.0058 15.3135 19.2235 14.7881 19.2235 14.2402V11.658H0.631287V14.2402Z" fill="#138808"/>
<path d="M19.2235 7.52634V4.94409C19.2235 4.39621 19.0058 3.87077 18.6184 3.48335C18.231 3.09594 17.7056 2.8783 17.1577 2.8783H2.69708C2.1492 2.8783 1.62376 3.09594 1.23634 3.48335C0.848933 3.87077 0.631287 4.39621 0.631287 4.94409L0.631287 7.52634H19.2235Z" fill="#FF9933"/>
<path d="M0.631287 7.35437H19.2235V11.8304H0.631287V7.35437Z" fill="#F7F7F7"/>
<path d="M9.92737 11.658C11.0683 11.658 11.9932 10.7331 11.9932 9.59216C11.9932 8.45126 11.0683 7.52637 9.92737 7.52637C8.78646 7.52637 7.86157 8.45126 7.86157 9.59216C7.86157 10.7331 8.78646 11.658 9.92737 11.658Z" fill="#000080"/>
<path d="M9.92737 11.3352C10.89 11.3352 11.6704 10.5548 11.6704 9.59214C11.6704 8.6295 10.89 7.84912 9.92737 7.84912C8.96473 7.84912 8.18436 8.6295 8.18436 9.59214C8.18436 10.5548 8.96473 11.3352 9.92737 11.3352Z" fill="#F7F7F7"/>
<path d="M9.979 8.94659L9.92736 9.28228L9.87571 8.94659L9.92736 7.93951L9.979 8.94659ZM9.49974 7.99581L9.71045 8.98171L9.84731 9.29261L9.81012 8.95537L9.49974 7.99581ZM9.10104 8.16107L9.55965 9.05866L9.77242 9.3236L9.64951 9.00702L9.10104 8.16107ZM8.75863 8.42343L9.43415 9.17228L9.70838 9.37318L9.50748 9.09894L8.75863 8.42343ZM8.49628 8.76583L9.34222 9.3143L9.6588 9.43722L9.39386 9.22444L8.49628 8.76583ZM8.33101 9.16453L9.29058 9.47492L9.62782 9.5121L9.31691 9.37524L8.33101 9.16453ZM8.27472 9.59215L9.2818 9.6438L9.61749 9.59215L9.2818 9.54051L8.27472 9.59215ZM8.33101 10.0198L9.31691 9.80906L9.62782 9.6722L9.29058 9.70939L8.33101 10.0198ZM8.49628 10.4185L9.39386 9.95986L9.6588 9.74709L9.34222 9.87L8.49628 10.4185ZM8.75863 10.7609L9.50748 10.0854L9.70838 9.81113L9.43415 10.012L8.75863 10.7609ZM9.10104 11.0232L9.64951 10.1773L9.77242 9.86071L9.55965 10.1256L9.10104 11.0232ZM9.49974 11.1885L9.81012 10.2289L9.84731 9.89169L9.71045 10.2026L9.49974 11.1885ZM9.92736 11.2448L9.979 10.2377L9.92736 9.90202L9.87571 10.2377L9.92736 11.2448ZM10.355 11.1885L10.1443 10.2026L10.0074 9.89169L10.0446 10.2289L10.355 11.1885ZM10.7537 11.0232L10.2951 10.1256L10.0823 9.86071L10.2052 10.1773L10.7537 11.0232ZM11.0961 10.7609L10.4206 10.012L10.1463 9.81113L10.3472 10.0854L11.0961 10.7609ZM11.3584 10.4185L10.5125 9.87L10.1959 9.74709L10.4609 9.95986L11.3584 10.4185ZM11.5237 10.0198L10.5641 9.70939L10.2269 9.6722L10.5378 9.80906L11.5237 10.0198ZM11.58 9.59215L10.5729 9.54051L10.2372 9.59215L10.5729 9.6438L11.58 9.59215ZM11.5237 9.16453L10.5378 9.37524L10.2269 9.5121L10.5641 9.47492L11.5237 9.16453ZM11.3584 8.76583L10.4609 9.22444L10.1959 9.43722L10.5125 9.3143L11.3584 8.76583ZM11.0961 8.42343L10.3472 9.09894L10.1463 9.37318L10.4206 9.17228L11.0961 8.42343ZM10.7537 8.16107L10.2052 9.00702L10.0823 9.3236L10.2951 9.05866L10.7537 8.16107ZM10.355 7.99581L10.0446 8.95537L10.0074 9.29261L10.1443 8.98171L10.355 7.99581Z" fill="#6666B3"/>
<path d="M9.70015 7.97001C9.7572 7.97001 9.80344 7.92376 9.80344 7.86672C9.80344 7.80967 9.7572 7.76343 9.70015 7.76343C9.64311 7.76343 9.59686 7.80967 9.59686 7.86672C9.59686 7.92376 9.64311 7.97001 9.70015 7.97001Z" fill="#000080"/>
<path d="M9.26116 8.08774C9.3182 8.08774 9.36445 8.0415 9.36445 7.98445C9.36445 7.92741 9.3182 7.88116 9.26116 7.88116C9.20411 7.88116 9.15787 7.92741 9.15787 7.98445C9.15787 8.0415 9.20411 8.08774 9.26116 8.08774Z" fill="#000080"/>
<path d="M8.86763 8.31449C8.92468 8.31449 8.97092 8.26825 8.97092 8.2112C8.97092 8.15415 8.92468 8.10791 8.86763 8.10791C8.81059 8.10791 8.76434 8.15415 8.76434 8.2112C8.76434 8.26825 8.81059 8.31449 8.86763 8.31449Z" fill="#000080"/>
<path d="M8.54641 8.63572C8.60345 8.63572 8.64969 8.58947 8.64969 8.53243C8.64969 8.47538 8.60345 8.42914 8.54641 8.42914C8.48936 8.42914 8.44312 8.47538 8.44312 8.53243C8.44312 8.58947 8.48936 8.63572 8.54641 8.63572Z" fill="#000080"/>
<path d="M8.31966 9.02927C8.3767 9.02927 8.42295 8.98303 8.42295 8.92598C8.42295 8.86894 8.3767 8.82269 8.31966 8.82269C8.26261 8.82269 8.21637 8.86894 8.21637 8.92598C8.21637 8.98303 8.26261 9.02927 8.31966 9.02927Z" fill="#000080"/>
<path d="M8.20192 9.46824C8.25897 9.46824 8.30521 9.42199 8.30521 9.36495C8.30521 9.3079 8.25897 9.26166 8.20192 9.26166C8.14488 9.26166 8.09863 9.3079 8.09863 9.36495C8.09863 9.42199 8.14488 9.46824 8.20192 9.46824Z" fill="#000080"/>
<path d="M8.20192 9.92271C8.25897 9.92271 8.30521 9.87646 8.30521 9.81942C8.30521 9.76237 8.25897 9.71613 8.20192 9.71613C8.14488 9.71613 8.09863 9.76237 8.09863 9.81942C8.09863 9.87646 8.14488 9.92271 8.20192 9.92271Z" fill="#000080"/>
<path d="M8.31966 10.3617C8.3767 10.3617 8.42295 10.3154 8.42295 10.2584C8.42295 10.2013 8.3767 10.1551 8.31966 10.1551C8.26261 10.1551 8.21637 10.2013 8.21637 10.2584C8.21637 10.3154 8.26261 10.3617 8.31966 10.3617Z" fill="#000080"/>
<path d="M8.54641 10.7552C8.60345 10.7552 8.64969 10.709 8.64969 10.6519C8.64969 10.5949 8.60345 10.5486 8.54641 10.5486C8.48936 10.5486 8.44312 10.5949 8.44312 10.6519C8.44312 10.709 8.48936 10.7552 8.54641 10.7552Z" fill="#000080"/>
<path d="M8.86763 11.0765C8.92468 11.0765 8.97092 11.0302 8.97092 10.9732C8.97092 10.9161 8.92468 10.8699 8.86763 10.8699C8.81059 10.8699 8.76434 10.9161 8.76434 10.9732C8.76434 11.0302 8.81059 11.0765 8.86763 11.0765Z" fill="#000080"/>
<path d="M9.26116 11.3032C9.3182 11.3032 9.36445 11.257 9.36445 11.1999C9.36445 11.1429 9.3182 11.0966 9.26116 11.0966C9.20411 11.0966 9.15787 11.1429 9.15787 11.1999C9.15787 11.257 9.20411 11.3032 9.26116 11.3032Z" fill="#000080"/>
<path d="M9.70015 11.4209C9.7572 11.4209 9.80344 11.3747 9.80344 11.3176C9.80344 11.2606 9.7572 11.2144 9.70015 11.2144C9.64311 11.2144 9.59686 11.2606 9.59686 11.3176C9.59686 11.3747 9.64311 11.4209 9.70015 11.4209Z" fill="#000080"/>
<path d="M10.1546 11.4209C10.2117 11.4209 10.2579 11.3747 10.2579 11.3176C10.2579 11.2606 10.2117 11.2144 10.1546 11.2144C10.0976 11.2144 10.0513 11.2606 10.0513 11.3176C10.0513 11.3747 10.0976 11.4209 10.1546 11.4209Z" fill="#000080"/>
<path d="M10.5936 11.3032C10.6507 11.3032 10.6969 11.257 10.6969 11.1999C10.6969 11.1429 10.6507 11.0966 10.5936 11.0966C10.5366 11.0966 10.4903 11.1429 10.4903 11.1999C10.4903 11.257 10.5366 11.3032 10.5936 11.3032Z" fill="#000080"/>
<path d="M10.9871 11.0765C11.0442 11.0765 11.0904 11.0302 11.0904 10.9732C11.0904 10.9161 11.0442 10.8699 10.9871 10.8699C10.9301 10.8699 10.8839 10.9161 10.8839 10.9732C10.8839 11.0302 10.9301 11.0765 10.9871 11.0765Z" fill="#000080"/>
<path d="M11.3084 10.7552C11.3654 10.7552 11.4117 10.709 11.4117 10.6519C11.4117 10.5949 11.3654 10.5486 11.3084 10.5486C11.2513 10.5486 11.2051 10.5949 11.2051 10.6519C11.2051 10.709 11.2513 10.7552 11.3084 10.7552Z" fill="#000080"/>
<path d="M11.5351 10.3617C11.5921 10.3617 11.6384 10.3154 11.6384 10.2584C11.6384 10.2013 11.5921 10.1551 11.5351 10.1551C11.478 10.1551 11.4318 10.2013 11.4318 10.2584C11.4318 10.3154 11.478 10.3617 11.5351 10.3617Z" fill="#000080"/>
<path d="M11.6528 9.92271C11.7099 9.92271 11.7561 9.87646 11.7561 9.81942C11.7561 9.76237 11.7099 9.71613 11.6528 9.71613C11.5958 9.71613 11.5495 9.76237 11.5495 9.81942C11.5495 9.87646 11.5958 9.92271 11.6528 9.92271Z" fill="#000080"/>
<path d="M11.6528 9.46824C11.7099 9.46824 11.7561 9.42199 11.7561 9.36495C11.7561 9.3079 11.7099 9.26166 11.6528 9.26166C11.5958 9.26166 11.5495 9.3079 11.5495 9.36495C11.5495 9.42199 11.5958 9.46824 11.6528 9.46824Z" fill="#000080"/>
<path d="M11.5351 9.02927C11.5921 9.02927 11.6384 8.98303 11.6384 8.92598C11.6384 8.86894 11.5921 8.82269 11.5351 8.82269C11.478 8.82269 11.4318 8.86894 11.4318 8.92598C11.4318 8.98303 11.478 9.02927 11.5351 9.02927Z" fill="#000080"/>
<path d="M11.3084 8.63572C11.3654 8.63572 11.4117 8.58947 11.4117 8.53243C11.4117 8.47538 11.3654 8.42914 11.3084 8.42914C11.2513 8.42914 11.2051 8.47538 11.2051 8.53243C11.2051 8.58947 11.2513 8.63572 11.3084 8.63572Z" fill="#000080"/>
<path d="M10.9871 8.31449C11.0442 8.31449 11.0904 8.26825 11.0904 8.2112C11.0904 8.15415 11.0442 8.10791 10.9871 8.10791C10.9301 8.10791 10.8839 8.15415 10.8839 8.2112C10.8839 8.26825 10.9301 8.31449 10.9871 8.31449Z" fill="#000080"/>
<path d="M10.5936 8.08774C10.6507 8.08774 10.6969 8.0415 10.6969 7.98445C10.6969 7.92741 10.6507 7.88116 10.5936 7.88116C10.5366 7.88116 10.4903 7.92741 10.4903 7.98445C10.4903 8.0415 10.5366 8.08774 10.5936 8.08774Z" fill="#000080"/>
<path d="M10.1546 7.97001C10.2117 7.97001 10.2579 7.92376 10.2579 7.86672C10.2579 7.80967 10.2117 7.76343 10.1546 7.76343C10.0976 7.76343 10.0513 7.80967 10.0513 7.86672C10.0513 7.92376 10.0976 7.97001 10.1546 7.97001Z" fill="#000080"/>
<path d="M9.92739 10.057C10.1841 10.057 10.3922 9.84889 10.3922 9.59218C10.3922 9.33548 10.1841 9.12738 9.92739 9.12738C9.67069 9.12738 9.46259 9.33548 9.46259 9.59218C9.46259 9.84889 9.67069 10.057 9.92739 10.057Z" fill="#000080"/>
</g>
<defs>
<clipPath id="clip0_1_535">
<rect width="18.5922" height="18.5922" fill="white" transform="translate(0.631287 0.296082)"/>
</clipPath>
</defs>
</svg>
