<svg width="79" height="54" viewBox="0 0 79 54" fill="none" xmlns="http://www.w3.org/2000/svg">
<path d="M54.075 42.2143H63.7863H64.2871L64.479 41.7518C65.5369 39.2029 68.0939 37.3929 71.1 37.3929C75.0651 37.3929 78.25 40.5272 78.25 44.3571C78.25 48.1871 75.0651 51.3214 71.1 51.3214C68.0939 51.3214 65.5369 49.5114 64.479 46.9625L64.2871 46.5H63.7863H54.075V42.2143ZM66.5194 23.8929C64.7453 30.888 60.2098 36.8271 54.075 40.5179V38.5714C54.075 37.5363 53.8738 36.5534 53.525 35.6453C57.4902 32.7393 60.4755 28.65 61.9305 23.8929L66.5194 23.8929ZM15.2137 46.5H14.7129L14.521 46.9625C13.4631 49.5114 10.9061 51.3214 7.9 51.3214C3.93494 51.3214 0.75 48.1871 0.75 44.3571C0.75 40.5272 3.93494 37.3929 7.9 37.3929C10.9061 37.3929 13.4631 39.2029 14.521 41.7518L14.7129 42.2143H15.2137H24.925V46.5H15.2137ZM24.925 40.5179C18.7902 36.8271 14.2547 30.888 12.4806 23.8929H17.0695C18.5245 28.6502 21.5099 32.7396 25.4753 35.6455C25.1272 36.553 24.925 37.5359 24.925 38.5714V40.5179ZM45.425 53.25H33.575C31.7912 53.25 30.375 51.8418 30.375 50.1429V38.5714C30.375 36.8725 31.7912 35.4643 33.575 35.4643L45.425 35.4643C47.2088 35.4643 48.625 36.8725 48.625 38.5714V50.1429C48.625 51.8418 47.2088 53.25 45.425 53.25ZM71.1 18.5357H59.25C57.4662 18.5357 56.05 17.1275 56.05 15.4286L56.05 3.85714C56.05 2.15821 57.4662 0.75 59.25 0.75H71.1C72.8838 0.75 74.3 2.15821 74.3 3.85714V15.4286C74.3 17.1275 72.8838 18.5357 71.1 18.5357ZM19.75 18.5357H7.9C6.11616 18.5357 4.7 17.1275 4.7 15.4286V3.85714C4.7 2.15821 6.11616 0.75 7.9 0.75H19.75C21.5338 0.75 22.95 2.15821 22.95 3.85714V15.4286C22.95 17.1275 21.5338 18.5357 19.75 18.5357Z" fill="#5A81FA" stroke="white" stroke-width="1.5"/>
</svg>
